<?xml version="1.0" encoding="utf-8"?>
<!-- Generator: Adobe Illustrator 26.0.0, SVG Export Plug-In . SVG Version: 6.00 Build 0)  -->
<svg version="1.1" id="Vrstva_1" xmlns="http://www.w3.org/2000/svg" xmlns:xlink="http://www.w3.org/1999/xlink" x="0px" y="0px"
	 viewBox="0 0 500 500" style="enable-background:new 0 0 500 500;" xml:space="preserve">
<style type="text/css">
	.st0{fill:#2FD8B2;}
</style>
<circle id="Oval-3" class="st0" cx="250" cy="250" r="250"/>
<path d="M248.6,289.5c-9.5,0-17.2,7.7-17.2,17.2l0,0v20c0,9.5,7.7,17.2,17.2,17.2c9.5,0,17.2-7.7,17.2-17.2l0,0v-20
	C265.8,297.2,258.1,289.5,248.6,289.5L248.6,289.5L248.6,289.5z M384.5,197.3c14,63.6-22.7,88.3-22.7,88.3
	c-4,25.4-15.4,48.2-32.8,64.9c-21.2,20.5-49.4,32.2-79,32.8c-29.4,0-57.5-12-78.9-32.8c-18.1-17.2-29.7-40.1-32.8-64.9
	c0,0-36.8-24.8-22.8-88.3l-14-2.1c4.8-14.2,16.8-30,34.8-40c13.3-8.5,29.2-12.6,46.1-12.6c19,0,36.5,5.3,50.8,15.7
	c10.8-1.6,21.8-1.6,32.6,0c14.2-10.4,31.8-15.8,50.8-15.8c17.8,0,34.3,4.6,48,13.8c17,10.1,28.8,25.1,33.9,38.8L384.5,197.3z
	 M169.1,191.3c10-10.1,21.8-18.2,34.8-24.1c-2.7-2.7-46.8-10.7-69.6,18.7h15.4c0,0-26.8,18.7-12,64.9
	C142.3,228.1,153,207.4,169.1,191.3L169.1,191.3z M342.3,270.3c0-51.4-41.6-93-93-93s-93,41.6-93,93s41.6,93,93,93l0,0
	C300.2,363.3,342.3,321.8,342.3,270.3L342.3,270.3z M348.3,186h15.4c-22.7-29.4-66.9-21.4-69.6-18.7c12.7,5.4,24.8,14,34.8,24.1
	c16,16.1,26.8,36.1,31.4,59.5C375.1,204.7,349,186,348.3,186L348.3,186z M191.1,285.5c0,6.3,5.1,11.4,11.4,11.4s11.4-5.1,11.4-11.4
	s-5.1-11.4-11.4-11.4S191.1,279.3,191.1,285.5z M283.3,285.5c0,6.3,5.1,11.4,11.4,11.4s11.4-5.1,11.4-11.4s-5.1-11.4-11.4-11.4
	S283.3,279.3,283.3,285.5z"/>
</svg>
